<svg width="9" height="11" viewBox="0 0 9 11" fill="none" xmlns="http://www.w3.org/2000/svg">
<path d="M1.29167 10.0833C1.03958 10.0833 0.823709 9.9935 0.644042 9.81383C0.464376 9.63416 0.374695 9.41844 0.375001 9.16667V2.75H1.29167V9.16667H6.33333V10.0833H1.29167ZM3.125 8.25C2.87292 8.25 2.65704 8.16016 2.47738 7.9805C2.29771 7.80083 2.20803 7.58511 2.20833 7.33333V1.83333C2.20833 1.58125 2.29817 1.36537 2.47783 1.18571C2.6575 1.00604 2.87322 0.916359 3.125 0.916665H7.25C7.50208 0.916665 7.71796 1.0065 7.89763 1.18616C8.07729 1.36583 8.16697 1.58155 8.16667 1.83333V7.33333C8.16667 7.58541 8.07683 7.80129 7.89717 7.98096C7.7175 8.16062 7.50178 8.2503 7.25 8.25H3.125ZM3.125 7.33333H7.25V1.83333H3.125V7.33333Z" fill="#8A8FCB"/>
</svg>
