<svg width="13" height="12" viewBox="0 0 13 12" fill="none" xmlns="http://www.w3.org/2000/svg">
<path d="M0.25 1.91667C0.25 1.60725 0.381696 1.3105 0.616116 1.09171C0.850537 0.872916 1.16848 0.75 1.5 0.75H11.5C11.8315 0.75 12.1495 0.872916 12.3839 1.09171C12.6183 1.3105 12.75 1.60725 12.75 1.91667V8.33333C12.75 8.64275 12.6183 8.9395 12.3839 9.15829C12.1495 9.37708 11.8315 9.5 11.5 9.5H7.125V10.6667H9C9.16576 10.6667 9.32473 10.7281 9.44194 10.8375C9.55915 10.9469 9.625 11.0953 9.625 11.25C9.625 11.4047 9.55915 11.5531 9.44194 11.6625C9.32473 11.7719 9.16576 11.8333 9 11.8333H4C3.83424 11.8333 3.67527 11.7719 3.55806 11.6625C3.44085 11.5531 3.375 11.4047 3.375 11.25C3.375 11.0953 3.44085 10.9469 3.55806 10.8375C3.67527 10.7281 3.83424 10.6667 4 10.6667H5.875V9.5H1.5C1.16848 9.5 0.850537 9.37708 0.616116 9.15829C0.381696 8.9395 0.25 8.64275 0.25 8.33333V1.91667ZM11.5 8.33333V1.91667H1.5V8.33333H11.5Z" fill="white"/>
</svg>
