<svg width="16" height="13" viewBox="0 0 16 13" fill="none" xmlns="http://www.w3.org/2000/svg">
<path d="M13.4525 0.997504C12.455 0.532504 11.375 0.195004 10.25 3.98106e-06C10.2401 -0.000311471 10.2303 0.00153959 10.2212 0.00542705C10.2122 0.00931451 10.2041 0.015144 10.1975 0.0225041C10.0625 0.270004 9.905 0.592504 9.8 0.840004C8.60675 0.660004 7.39325 0.660004 6.2 0.840004C6.095 0.585004 5.9375 0.270004 5.795 0.0225041C5.7875 0.00750414 5.765 3.98106e-06 5.7425 3.98106e-06C4.6175 0.195004 3.545 0.532504 2.54 0.997504C2.5325 0.997504 2.525 1.005 2.5175 1.0125C0.477496 4.065 -0.0850036 7.035 0.192496 9.975C0.192496 9.99 0.199996 10.005 0.214996 10.0125C1.565 11.0025 2.8625 11.6025 4.145 12C4.1675 12.0075 4.19 12 4.1975 11.985C4.4975 11.5725 4.7675 11.1375 5 10.68C5.015 10.65 5 10.62 4.97 10.6125C4.5425 10.4475 4.1375 10.2525 3.74 10.0275C3.71 10.0125 3.71 9.9675 3.7325 9.945C3.815 9.885 3.8975 9.8175 3.98 9.7575C3.995 9.7425 4.0175 9.7425 4.0325 9.75C6.6125 10.9275 9.395 10.9275 11.945 9.75C11.96 9.7425 11.9825 9.7425 11.9975 9.7575C12.08 9.825 12.1625 9.885 12.245 9.9525C12.275 9.975 12.275 10.02 12.2375 10.035C11.8475 10.2675 11.435 10.455 11.0075 10.62C10.9775 10.6275 10.97 10.665 10.9775 10.6875C11.2175 11.145 11.4875 11.58 11.78 11.9925C11.8025 12 11.825 12.0075 11.8475 12C13.1375 11.6025 14.435 11.0025 15.785 10.0125C15.8 10.005 15.8075 9.99 15.8075 9.975C16.1375 6.5775 15.26 3.63 13.4825 1.0125C13.475 1.005 13.4675 0.997504 13.4525 0.997504ZM5.39 8.1825C4.6175 8.1825 3.9725 7.47 3.9725 6.5925C3.9725 5.715 4.6025 5.0025 5.39 5.0025C6.185 5.0025 6.815 5.7225 6.8075 6.5925C6.8075 7.47 6.1775 8.1825 5.39 8.1825ZM10.6175 8.1825C9.845 8.1825 9.2 7.47 9.2 6.5925C9.2 5.715 9.83 5.0025 10.6175 5.0025C11.4125 5.0025 12.0425 5.7225 12.035 6.5925C12.035 7.47 11.4125 8.1825 10.6175 8.1825Z" fill="#101221"/>
</svg>
