<svg width="46" height="35" viewBox="0 0 46 35" fill="none" xmlns="http://www.w3.org/2000/svg">
<path d="M44 8.33333C44 4.53604 36.6873 1.45833 27.6667 1.45833C18.646 1.45833 11.3333 4.53604 11.3333 8.33333M44 8.33333V17.5C44 19.8375 41.2327 21.9 37 23.1421C34.354 23.9212 31.1363 24.375 27.6667 24.375C24.197 24.375 20.9793 23.919 18.3333 23.1421C14.103 21.9 11.3333 19.8375 11.3333 17.5V8.33333M44 8.33333C44 10.6708 41.2327 12.7333 37 13.9754C34.354 14.7546 31.1363 15.2083 27.6667 15.2083C24.197 15.2083 20.9793 14.7523 18.3333 13.9754C14.103 12.7333 11.3333 10.6708 11.3333 8.33333" stroke="white" stroke-width="2.3" stroke-linecap="round" stroke-linejoin="round"/>
<path d="M2 17.5V26.6667C2 29.0042 4.76967 31.0667 9 32.3088C11.646 33.0879 14.8637 33.5417 18.3333 33.5417C21.803 33.5417 25.0207 33.0856 27.6667 32.3088C31.897 31.0667 34.6667 29.0042 34.6667 26.6667V24.375M2 17.5C2 14.7569 5.815 12.3896 11.3333 11.2873M2 17.5C2 19.8375 4.76967 21.9 9 23.1421C11.646 23.9213 14.8637 24.375 18.3333 24.375C19.955 24.375 21.5207 24.2765 23 24.0908" stroke="white" stroke-width="2.3" stroke-linecap="round" stroke-linejoin="round"/>
</svg>
