<svg width="15" height="12" viewBox="0 0 15 12" fill="none" xmlns="http://www.w3.org/2000/svg">
<path d="M12.4969 2.18C13.0572 1.84505 13.4764 1.31765 13.6763 0.696249C13.1498 1.00864 12.5738 1.22868 11.9731 1.34687C11.568 0.918342 11.0332 0.634948 10.4512 0.540375C9.86909 0.445802 9.27207 0.5453 8.75213 0.823533C8.2322 1.10177 7.81821 1.54329 7.57398 2.08004C7.32975 2.61679 7.26883 3.21896 7.40063 3.79375C6.33431 3.74021 5.29116 3.46305 4.33889 2.98024C3.38663 2.49743 2.54653 1.81977 1.87313 0.991248C1.53067 1.58194 1.42588 2.28083 1.58004 2.94598C1.7342 3.61114 2.13575 4.19268 2.70313 4.5725C2.27733 4.55881 1.86096 4.44352 1.48876 4.23625V4.27C1.48888 4.88936 1.70322 5.48961 2.09542 5.96896C2.48763 6.44831 3.03356 6.77725 3.64063 6.9C3.24567 7.00745 2.83139 7.02327 2.42938 6.94625C2.60109 7.47895 2.93483 7.94475 3.38401 8.27864C3.8332 8.61254 4.37542 8.79786 4.93501 8.80875C3.9849 9.55445 2.81156 9.95885 1.60376 9.95687C1.38938 9.95687 1.17563 9.94437 0.963135 9.92C2.18964 10.7081 3.61712 11.1264 5.07501 11.125C6.07914 11.1319 7.07463 10.9392 8.00365 10.5581C8.93267 10.177 9.7767 9.61508 10.4867 8.90501C11.1967 8.19494 11.7586 7.35086 12.1396 6.42181C12.5206 5.49275 12.7132 4.49725 12.7063 3.49312C12.7063 3.37687 12.7038 3.26125 12.6981 3.14625C13.2234 2.76663 13.6768 2.29635 14.0369 1.7575C13.5475 1.9744 13.0284 2.11682 12.4969 2.18Z" fill="white"/>
</svg>
