<svg width="26" height="25" viewBox="0 0 26 25" fill="none" xmlns="http://www.w3.org/2000/svg">
<path d="M10.2917 10.5C8.9625 10.5 7.82465 10.0267 6.87813 9.0802C5.9316 8.13368 5.45833 6.99583 5.45833 5.66666C5.45833 4.3375 5.9316 3.19965 6.87813 2.25312C7.82465 1.30659 8.9625 0.833328 10.2917 0.833328C11.6208 0.833328 12.7587 1.30659 13.7052 2.25312C14.6517 3.19965 15.125 4.3375 15.125 5.66666C15.125 6.99583 14.6517 8.13368 13.7052 9.0802C12.7587 10.0267 11.6208 10.5 10.2917 10.5ZM23.7042 24.3958L19.8375 20.5292C19.4146 20.7708 18.9615 20.9722 18.4781 21.1333C17.9948 21.2944 17.4813 21.375 16.9375 21.375C15.4271 21.375 14.143 20.8465 13.0853 19.7897C12.0284 18.732 11.5 17.4479 11.5 15.9375C11.5 14.4271 12.0284 13.143 13.0853 12.0853C14.143 11.0284 15.4271 10.5 16.9375 10.5C18.4479 10.5 19.732 11.0284 20.7897 12.0853C21.8466 13.143 22.375 14.4271 22.375 15.9375C22.375 16.4812 22.2944 16.9948 22.1333 17.4781C21.9722 17.9615 21.7708 18.4146 21.5292 18.8375L25.3958 22.7042L23.7042 24.3958ZM16.9375 18.9583C17.7833 18.9583 18.4983 18.6663 19.0823 18.0823C19.6663 17.4983 19.9583 16.7833 19.9583 15.9375C19.9583 15.0917 19.6663 14.3767 19.0823 13.7927C18.4983 13.2087 17.7833 12.9167 16.9375 12.9167C16.0917 12.9167 15.3767 13.2087 14.7927 13.7927C14.2087 14.3767 13.9167 15.0917 13.9167 15.9375C13.9167 16.7833 14.2087 17.4983 14.7927 18.0823C15.3767 18.6663 16.0917 18.9583 16.9375 18.9583ZM10.3219 11.7083C9.47604 12.9569 9.05313 14.3667 9.05313 15.9375C9.05313 17.5083 9.47604 18.9181 10.3219 20.1667H0.625V16.8135C0.625 16.1288 0.796181 15.4944 1.13854 14.9104C1.4809 14.3264 1.95417 13.8833 2.55833 13.5812C3.58542 13.0576 4.7434 12.6146 6.03229 12.2521C7.32118 11.8896 8.75104 11.7083 10.3219 11.7083Z" fill="white"/>
</svg>
